<svg id="Layer_1" data-name="Layer 1" xmlns="http://www.w3.org/2000/svg" xmlns:xlink="http://www.w3.org/1999/xlink" viewBox="0 0 600 250"><defs><style>.cls-1{fill:url(#linear-gradient);}.cls-2{fill:url(#linear-gradient-2);}.cls-3{fill:url(#linear-gradient-3);}.cls-4{fill:url(#linear-gradient-4);}.cls-5{fill:url(#linear-gradient-5);}.cls-6{stroke:#000;stroke-miterlimit:10;stroke-width:4px;}</style><linearGradient id="linear-gradient" x1="139.8" y1="97.28" x2="228.47" y2="97.28" gradientTransform="matrix(1, 0, 0, -1, 0, 252)" gradientUnits="userSpaceOnUse"><stop offset="0" stop-color="#2a83ff"/><stop offset="0.2" stop-color="#2a7fff"/><stop offset="0.42" stop-color="#2a72ff"/><stop offset="0.64" stop-color="#2a5cff"/><stop offset="0.87" stop-color="#2a3eff"/><stop offset="1" stop-color="#2a29ff"/></linearGradient><linearGradient id="linear-gradient-2" x1="248.11" y1="198.79" x2="579.08" y2="198.79" xlink:href="#linear-gradient"/><linearGradient id="linear-gradient-3" x1="239.31" y1="416.28" x2="303.36" y2="386.42" gradientTransform="matrix(0.91, -0.42, -0.42, -0.91, 18.87, 652.59)" xlink:href="#linear-gradient"/><linearGradient id="linear-gradient-4" x1="20.92" y1="36.12" x2="52.7" y2="36.12" xlink:href="#linear-gradient"/><linearGradient id="linear-gradient-5" x1="139.79" y1="52.53" x2="171.57" y2="52.53" xlink:href="#linear-gradient"/></defs><path class="cls-1" d="M228.47,154.72a38.17,38.17,0,0,1-38.13,38.13H152.63a12.84,12.84,0,0,1,0-25.68h37.71a12.46,12.46,0,1,0,0-24.91H152.63a12.84,12.84,0,0,1,0-25.67h37.71A38.17,38.17,0,0,1,228.47,154.72Z"/><path class="cls-2" d="M248.11,88.2a234.16,234.16,0,0,1,77.07-52.15A228.52,228.52,0,0,1,502,36a236.64,236.64,0,0,1,40.73,21.93c3.2,2.27,6.42,4.46,9.57,6.78s6.22,4.81,9.27,7.3,6,5.18,8.94,7.81c2.86,2.8,5.74,5.52,8.54,8.37-3.36-1.84-6.63-3.81-9.93-5.69l-9.95-5.44-10-5.11L539.1,67.18a325.21,325.21,0,0,0-41.05-15.52,288.6,288.6,0,0,0-168.91,0,323.74,323.74,0,0,0-41.05,15.53c-3.34,1.59-6.75,3.09-10.08,4.78l-5,2.54c-1.66.87-3.37,1.64-5,2.58l-5,2.71c-1.66.91-3.36,1.74-5,2.73Z"/><path class="cls-3" d="M114.62,231.77a16,16,0,0,1-14.41-9.18L61.32,139.2a15.89,15.89,0,1,1,28.8-13.43L129,209.16a15.9,15.9,0,0,1-14.39,22.61Z"/><circle class="cls-4" cx="36.81" cy="215.88" r="15.89"/><path class="cls-5" d="M171.57,167.17v48.71a15.89,15.89,0,0,1-31.78,0h0V180a12.86,12.86,0,0,1,12.84-12.85Z"/><path class="cls-6" d="M346.51,226.5c-5.12,2.55-15.34,5.11-28.44,5.11-30.35,0-53.19-19.17-53.19-54.47,0-33.71,22.84-56.55,56.23-56.55,13.42,0,21.88,2.87,25.56,4.79l-3.36,11.34a50.55,50.55,0,0,0-21.72-4.47c-25.24,0-42,16.13-42,44.41C279.57,203,294.75,220,321,220c8.46,0,17.09-1.76,22.68-4.47Z"/><path class="cls-6" d="M363.44,116.59h14.05V230H363.44Z"/><path class="cls-6" d="M465.83,208.93c0,8,.16,15,.64,21.08H454l-.8-12.62h-.32a29.09,29.09,0,0,1-25.56,14.38c-12.14,0-26.67-6.71-26.67-33.87V152.7h14v42.81c0,14.69,4.48,24.6,17.26,24.6,9.42,0,16-6.55,18.53-12.78a20.77,20.77,0,0,0,1.27-7.19V152.7h14.06Z"/><path class="cls-6" d="M488.51,230c.32-5.27.64-13.1.64-20V116.59h13.9v48.57h.32c4.95-8.63,13.9-14.22,26.36-14.22,19.17,0,32.75,16,32.59,39.46,0,27.63-17.42,41.37-34.67,41.37-11.18,0-20.13-4.31-25.88-14.54h-.48L500.65,230Zm14.54-31a26.16,26.16,0,0,0,.64,5.11c2.71,9.75,10.86,16.46,21.09,16.46,14.69,0,23.48-12,23.48-29.71,0-15.5-8-28.76-23-28.76-9.59,0-18.54,6.55-21.41,17.25a27.74,27.74,0,0,0-.8,5.75Z"/></svg>