<svg id="Layer_1" data-name="Layer 1" xmlns="http://www.w3.org/2000/svg" xmlns:xlink="http://www.w3.org/1999/xlink" viewBox="0 0 245.72 250"><defs><style>.cls-1{fill:url(#linear-gradient);}.cls-2{fill:url(#linear-gradient-2);}.cls-3{fill:url(#linear-gradient-3);}.cls-4{fill:url(#linear-gradient-4);}</style><linearGradient id="linear-gradient" x1="137.96" y1="97.28" x2="226.63" y2="97.28" gradientTransform="matrix(1, 0, 0, -1, 0, 252)" gradientUnits="userSpaceOnUse"><stop offset="0" stop-color="#2a83ff"/><stop offset="0.2" stop-color="#2a7fff"/><stop offset="0.42" stop-color="#2a72ff"/><stop offset="0.64" stop-color="#2a5cff"/><stop offset="0.87" stop-color="#2a3eff"/><stop offset="1" stop-color="#2a29ff"/></linearGradient><linearGradient id="linear-gradient-2" x1="179.57" y1="155.04" x2="243.61" y2="125.17" gradientTransform="matrix(0.91, -0.42, -0.42, -0.91, -39.23, 390.58)" xlink:href="#linear-gradient"/><linearGradient id="linear-gradient-3" x1="19.08" y1="36.12" x2="50.86" y2="36.12" xlink:href="#linear-gradient"/><linearGradient id="linear-gradient-4" x1="137.96" y1="52.53" x2="169.74" y2="52.53" xlink:href="#linear-gradient"/></defs><path class="cls-1" d="M226.63,154.72a38.17,38.17,0,0,1-38.12,38.13H150.79a12.84,12.84,0,0,1,0-25.68h37.72a12.46,12.46,0,0,0,0-24.91H150.79a12.84,12.84,0,0,1,0-25.67h37.72A38.16,38.16,0,0,1,226.63,154.72Z"/><path class="cls-2" d="M112.78,231.77a16,16,0,0,1-14.41-9.18L59.49,139.2a15.89,15.89,0,1,1,28.8-13.43l38.88,83.39a15.9,15.9,0,0,1-14.39,22.61Z"/><circle class="cls-3" cx="34.97" cy="215.88" r="15.89"/><path class="cls-4" d="M169.74,167.17v48.71a15.89,15.89,0,0,1-31.78,0h0V180a12.85,12.85,0,0,1,12.83-12.85Z"/></svg>